<mxfile host="app.diagrams.net" agent="Mozilla/5.0 (Windows NT 10.0; Win64; x64) AppleWebKit/537.36 (KHTML, like Gecko) Chrome/130.0.0.0 Safari/537.36" version="24.8.4">
  <diagram name="Trang-1" id="KUGLHPBJDXLbqY33dowA">
    <mxGraphModel dx="2049" dy="1066" grid="1" gridSize="10" guides="1" tooltips="1" connect="1" arrows="1" fold="1" page="1" pageScale="1" pageWidth="1920" pageHeight="1200" math="0" shadow="0">
      <root>
        <mxCell id="0" />
        <mxCell id="1" parent="0" />
        <mxCell id="tp8tk3ZOuLwhO5mAe-Hx-1" value="qrCode - use case" style="shape=umlFrame;whiteSpace=wrap;html=1;pointerEvents=0;recursiveResize=0;container=1;collapsible=0;width=160;" parent="1" vertex="1">
          <mxGeometry x="180" y="360" width="1570" height="1890" as="geometry" />
        </mxCell>
        <mxCell id="WepjOPcnquh5TteQ4RRN-25" style="rounded=0;orthogonalLoop=1;jettySize=auto;html=1;entryX=0;entryY=0.5;entryDx=0;entryDy=0;endArrow=none;endFill=0;" edge="1" parent="tp8tk3ZOuLwhO5mAe-Hx-1">
          <mxGeometry relative="1" as="geometry">
            <mxPoint x="120.0028593949088" y="450.0021383234072" as="sourcePoint" />
            <mxPoint x="264.64" y="158.43" as="targetPoint" />
          </mxGeometry>
        </mxCell>
        <mxCell id="WepjOPcnquh5TteQ4RRN-27" style="rounded=0;orthogonalLoop=1;jettySize=auto;html=1;entryX=0;entryY=0.5;entryDx=0;entryDy=0;endArrow=none;endFill=0;exitX=1;exitY=0;exitDx=0;exitDy=0;" edge="1" parent="tp8tk3ZOuLwhO5mAe-Hx-1" source="WepjOPcnquh5TteQ4RRN-2" target="WepjOPcnquh5TteQ4RRN-5">
          <mxGeometry relative="1" as="geometry" />
        </mxCell>
        <mxCell id="WepjOPcnquh5TteQ4RRN-28" style="rounded=0;orthogonalLoop=1;jettySize=auto;html=1;entryX=0;entryY=0.5;entryDx=0;entryDy=0;endArrow=none;endFill=0;exitX=1;exitY=0;exitDx=0;exitDy=0;" edge="1" parent="tp8tk3ZOuLwhO5mAe-Hx-1" source="WepjOPcnquh5TteQ4RRN-2" target="WepjOPcnquh5TteQ4RRN-6">
          <mxGeometry relative="1" as="geometry" />
        </mxCell>
        <mxCell id="WepjOPcnquh5TteQ4RRN-29" style="rounded=0;orthogonalLoop=1;jettySize=auto;html=1;endArrow=none;endFill=0;exitX=1;exitY=0;exitDx=0;exitDy=0;" edge="1" parent="tp8tk3ZOuLwhO5mAe-Hx-1" source="WepjOPcnquh5TteQ4RRN-2" target="WepjOPcnquh5TteQ4RRN-7">
          <mxGeometry relative="1" as="geometry" />
        </mxCell>
        <mxCell id="WepjOPcnquh5TteQ4RRN-30" style="rounded=0;orthogonalLoop=1;jettySize=auto;html=1;entryX=0;entryY=0.5;entryDx=0;entryDy=0;endArrow=none;endFill=0;exitX=1;exitY=0;exitDx=0;exitDy=0;" edge="1" parent="tp8tk3ZOuLwhO5mAe-Hx-1" source="WepjOPcnquh5TteQ4RRN-2" target="WepjOPcnquh5TteQ4RRN-18">
          <mxGeometry relative="1" as="geometry" />
        </mxCell>
        <mxCell id="WepjOPcnquh5TteQ4RRN-2" value="đăng nhập bằng QRcode" style="ellipse;whiteSpace=wrap;html=1;" vertex="1" parent="tp8tk3ZOuLwhO5mAe-Hx-1">
          <mxGeometry x="40" y="430" width="100" height="65" as="geometry" />
        </mxCell>
        <mxCell id="WepjOPcnquh5TteQ4RRN-4" value="hiển thị danh sách món ăn" style="ellipse;whiteSpace=wrap;html=1;" vertex="1" parent="tp8tk3ZOuLwhO5mAe-Hx-1">
          <mxGeometry x="250" y="110" width="100" height="60" as="geometry" />
        </mxCell>
        <mxCell id="WepjOPcnquh5TteQ4RRN-5" value="hiển thị danh sách combo" style="ellipse;whiteSpace=wrap;html=1;" vertex="1" parent="tp8tk3ZOuLwhO5mAe-Hx-1">
          <mxGeometry x="250" y="200" width="100" height="60" as="geometry" />
        </mxCell>
        <mxCell id="WepjOPcnquh5TteQ4RRN-6" value="xem thông tin món ăn" style="ellipse;whiteSpace=wrap;html=1;" vertex="1" parent="tp8tk3ZOuLwhO5mAe-Hx-1">
          <mxGeometry x="250" y="290" width="100" height="60" as="geometry" />
        </mxCell>
        <mxCell id="WepjOPcnquh5TteQ4RRN-7" value="tìm kiếm món ăn" style="ellipse;whiteSpace=wrap;html=1;" vertex="1" parent="tp8tk3ZOuLwhO5mAe-Hx-1">
          <mxGeometry x="250" y="370" width="100" height="60" as="geometry" />
        </mxCell>
        <mxCell id="WepjOPcnquh5TteQ4RRN-8" value="đơn đặt hàng" style="ellipse;whiteSpace=wrap;html=1;" vertex="1" parent="tp8tk3ZOuLwhO5mAe-Hx-1">
          <mxGeometry x="510" y="307.5" width="100" height="65" as="geometry" />
        </mxCell>
        <mxCell id="WepjOPcnquh5TteQ4RRN-14" value="chọn khuyến mãi" style="ellipse;whiteSpace=wrap;html=1;" vertex="1" parent="tp8tk3ZOuLwhO5mAe-Hx-1">
          <mxGeometry x="440" y="160" width="80" height="50" as="geometry" />
        </mxCell>
        <mxCell id="WepjOPcnquh5TteQ4RRN-15" value="yêu cầu khác" style="ellipse;whiteSpace=wrap;html=1;" vertex="1" parent="tp8tk3ZOuLwhO5mAe-Hx-1">
          <mxGeometry x="540" y="150" width="80" height="50" as="geometry" />
        </mxCell>
        <mxCell id="WepjOPcnquh5TteQ4RRN-16" value="&amp;lt;&amp;lt;extend&amp;gt;&amp;gt;" style="html=1;verticalAlign=bottom;labelBackgroundColor=none;endArrow=open;endFill=0;dashed=1;rounded=0;exitX=0.5;exitY=1;exitDx=0;exitDy=0;entryX=0.5;entryY=0;entryDx=0;entryDy=0;" edge="1" parent="tp8tk3ZOuLwhO5mAe-Hx-1" source="WepjOPcnquh5TteQ4RRN-15" target="WepjOPcnquh5TteQ4RRN-8">
          <mxGeometry width="160" relative="1" as="geometry">
            <mxPoint x="570" y="320" as="sourcePoint" />
            <mxPoint x="730" y="320" as="targetPoint" />
          </mxGeometry>
        </mxCell>
        <mxCell id="WepjOPcnquh5TteQ4RRN-17" value="&amp;lt;&amp;lt;extend&amp;gt;&amp;gt;" style="html=1;verticalAlign=bottom;labelBackgroundColor=none;endArrow=open;endFill=0;dashed=1;rounded=0;exitX=0.5;exitY=1;exitDx=0;exitDy=0;entryX=0.2;entryY=0.038;entryDx=0;entryDy=0;entryPerimeter=0;" edge="1" parent="tp8tk3ZOuLwhO5mAe-Hx-1" source="WepjOPcnquh5TteQ4RRN-14" target="WepjOPcnquh5TteQ4RRN-8">
          <mxGeometry width="160" relative="1" as="geometry">
            <mxPoint x="580" y="215" as="sourcePoint" />
            <mxPoint x="546" y="270" as="targetPoint" />
          </mxGeometry>
        </mxCell>
        <mxCell id="WepjOPcnquh5TteQ4RRN-18" value="chọn món ăn" style="ellipse;whiteSpace=wrap;html=1;" vertex="1" parent="tp8tk3ZOuLwhO5mAe-Hx-1">
          <mxGeometry x="250" y="450" width="100" height="60" as="geometry" />
        </mxCell>
        <mxCell id="WepjOPcnquh5TteQ4RRN-21" value="thanh toán" style="ellipse;whiteSpace=wrap;html=1;" vertex="1" parent="tp8tk3ZOuLwhO5mAe-Hx-1">
          <mxGeometry x="640" y="170" width="80" height="50" as="geometry" />
        </mxCell>
        <mxCell id="WepjOPcnquh5TteQ4RRN-22" value="&amp;lt;&amp;lt;extend&amp;gt;&amp;gt;" style="html=1;verticalAlign=bottom;labelBackgroundColor=none;endArrow=open;endFill=0;dashed=1;rounded=0;exitX=0.414;exitY=1.047;exitDx=0;exitDy=0;entryX=0.789;entryY=0.067;entryDx=0;entryDy=0;entryPerimeter=0;exitPerimeter=0;" edge="1" parent="tp8tk3ZOuLwhO5mAe-Hx-1" source="WepjOPcnquh5TteQ4RRN-21" target="WepjOPcnquh5TteQ4RRN-8">
          <mxGeometry width="160" relative="1" as="geometry">
            <mxPoint x="580" y="215" as="sourcePoint" />
            <mxPoint x="546" y="270" as="targetPoint" />
          </mxGeometry>
        </mxCell>
        <mxCell id="WepjOPcnquh5TteQ4RRN-31" value="&amp;lt;&amp;lt;include&amp;gt;&amp;gt;" style="html=1;verticalAlign=bottom;labelBackgroundColor=none;endArrow=open;endFill=0;dashed=1;rounded=0;exitX=1;exitY=0.5;exitDx=0;exitDy=0;entryX=0;entryY=0.5;entryDx=0;entryDy=0;" edge="1" parent="tp8tk3ZOuLwhO5mAe-Hx-1" source="WepjOPcnquh5TteQ4RRN-4" target="WepjOPcnquh5TteQ4RRN-8">
          <mxGeometry width="160" relative="1" as="geometry">
            <mxPoint x="360" y="290" as="sourcePoint" />
            <mxPoint x="520" y="290" as="targetPoint" />
          </mxGeometry>
        </mxCell>
        <mxCell id="WepjOPcnquh5TteQ4RRN-32" value="&amp;lt;&amp;lt;include&amp;gt;&amp;gt;" style="html=1;verticalAlign=bottom;labelBackgroundColor=none;endArrow=open;endFill=0;dashed=1;rounded=0;exitX=1;exitY=0.5;exitDx=0;exitDy=0;entryX=0;entryY=0.5;entryDx=0;entryDy=0;" edge="1" parent="tp8tk3ZOuLwhO5mAe-Hx-1" source="WepjOPcnquh5TteQ4RRN-5" target="WepjOPcnquh5TteQ4RRN-8">
          <mxGeometry width="160" relative="1" as="geometry">
            <mxPoint x="380" y="250" as="sourcePoint" />
            <mxPoint x="540" y="450" as="targetPoint" />
          </mxGeometry>
        </mxCell>
        <mxCell id="WepjOPcnquh5TteQ4RRN-33" value="&amp;lt;&amp;lt;include&amp;gt;&amp;gt;" style="html=1;verticalAlign=bottom;labelBackgroundColor=none;endArrow=open;endFill=0;dashed=1;rounded=0;exitX=1;exitY=0.5;exitDx=0;exitDy=0;" edge="1" parent="tp8tk3ZOuLwhO5mAe-Hx-1" source="WepjOPcnquh5TteQ4RRN-6" target="WepjOPcnquh5TteQ4RRN-8">
          <mxGeometry width="160" relative="1" as="geometry">
            <mxPoint x="370" y="160" as="sourcePoint" />
            <mxPoint x="530" y="360" as="targetPoint" />
          </mxGeometry>
        </mxCell>
        <mxCell id="WepjOPcnquh5TteQ4RRN-34" value="&amp;lt;&amp;lt;include&amp;gt;&amp;gt;" style="html=1;verticalAlign=bottom;labelBackgroundColor=none;endArrow=open;endFill=0;dashed=1;rounded=0;exitX=1;exitY=0.5;exitDx=0;exitDy=0;entryX=0.021;entryY=0.407;entryDx=0;entryDy=0;entryPerimeter=0;" edge="1" parent="tp8tk3ZOuLwhO5mAe-Hx-1" source="WepjOPcnquh5TteQ4RRN-7" target="WepjOPcnquh5TteQ4RRN-8">
          <mxGeometry width="160" relative="1" as="geometry">
            <mxPoint x="380" y="170" as="sourcePoint" />
            <mxPoint x="520" y="340" as="targetPoint" />
          </mxGeometry>
        </mxCell>
        <mxCell id="WepjOPcnquh5TteQ4RRN-36" value="đặt thêm món" style="ellipse;whiteSpace=wrap;html=1;" vertex="1" parent="tp8tk3ZOuLwhO5mAe-Hx-1">
          <mxGeometry x="690" y="240" width="80" height="50" as="geometry" />
        </mxCell>
        <mxCell id="WepjOPcnquh5TteQ4RRN-37" value="huỷ món" style="ellipse;whiteSpace=wrap;html=1;" vertex="1" parent="tp8tk3ZOuLwhO5mAe-Hx-1">
          <mxGeometry x="690" y="300" width="80" height="50" as="geometry" />
        </mxCell>
        <mxCell id="WepjOPcnquh5TteQ4RRN-38" value="&amp;lt;&amp;lt;extend&amp;gt;&amp;gt;" style="html=1;verticalAlign=bottom;labelBackgroundColor=none;endArrow=open;endFill=0;dashed=1;rounded=0;entryX=1;entryY=0.5;entryDx=0;entryDy=0;" edge="1" parent="tp8tk3ZOuLwhO5mAe-Hx-1" source="WepjOPcnquh5TteQ4RRN-37" target="WepjOPcnquh5TteQ4RRN-8">
          <mxGeometry width="160" relative="1" as="geometry">
            <mxPoint x="683" y="232" as="sourcePoint" />
            <mxPoint x="599" y="322" as="targetPoint" />
          </mxGeometry>
        </mxCell>
        <mxCell id="WepjOPcnquh5TteQ4RRN-39" value="&amp;lt;&amp;lt;extend&amp;gt;&amp;gt;" style="html=1;verticalAlign=bottom;labelBackgroundColor=none;endArrow=open;endFill=0;dashed=1;rounded=0;entryX=0.936;entryY=0.213;entryDx=0;entryDy=0;exitX=0;exitY=0.5;exitDx=0;exitDy=0;entryPerimeter=0;" edge="1" parent="tp8tk3ZOuLwhO5mAe-Hx-1" source="WepjOPcnquh5TteQ4RRN-36" target="WepjOPcnquh5TteQ4RRN-8">
          <mxGeometry width="160" relative="1" as="geometry">
            <mxPoint x="701" y="340" as="sourcePoint" />
            <mxPoint x="620" y="350" as="targetPoint" />
          </mxGeometry>
        </mxCell>
        <mxCell id="WepjOPcnquh5TteQ4RRN-43" value="quản lý combo" style="ellipse;whiteSpace=wrap;html=1;" vertex="1" parent="tp8tk3ZOuLwhO5mAe-Hx-1">
          <mxGeometry x="1130" y="90" width="100" height="60" as="geometry" />
        </mxCell>
        <mxCell id="WepjOPcnquh5TteQ4RRN-44" value="quản lý món ăn" style="ellipse;whiteSpace=wrap;html=1;" vertex="1" parent="tp8tk3ZOuLwhO5mAe-Hx-1">
          <mxGeometry x="1240" y="240" width="100" height="60" as="geometry" />
        </mxCell>
        <mxCell id="WepjOPcnquh5TteQ4RRN-45" value="quản lý nhân viên" style="ellipse;whiteSpace=wrap;html=1;" vertex="1" parent="tp8tk3ZOuLwhO5mAe-Hx-1">
          <mxGeometry x="1250" y="420" width="100" height="60" as="geometry" />
        </mxCell>
        <mxCell id="WepjOPcnquh5TteQ4RRN-46" value="thống kê" style="ellipse;whiteSpace=wrap;html=1;" vertex="1" parent="tp8tk3ZOuLwhO5mAe-Hx-1">
          <mxGeometry x="1240" y="740" width="100" height="60" as="geometry" />
        </mxCell>
        <mxCell id="WepjOPcnquh5TteQ4RRN-47" value="quản lý đơn hàng" style="ellipse;whiteSpace=wrap;html=1;" vertex="1" parent="tp8tk3ZOuLwhO5mAe-Hx-1">
          <mxGeometry x="1250" y="850" width="100" height="60" as="geometry" />
        </mxCell>
        <mxCell id="WepjOPcnquh5TteQ4RRN-48" value="cập nhật trạng thái đơn hàng" style="ellipse;whiteSpace=wrap;html=1;" vertex="1" parent="tp8tk3ZOuLwhO5mAe-Hx-1">
          <mxGeometry x="1270" y="1420" width="100" height="60" as="geometry" />
        </mxCell>
        <mxCell id="WepjOPcnquh5TteQ4RRN-49" value="quản lý bàn" style="ellipse;whiteSpace=wrap;html=1;" vertex="1" parent="tp8tk3ZOuLwhO5mAe-Hx-1">
          <mxGeometry x="1240" y="560" width="100" height="60" as="geometry" />
        </mxCell>
        <mxCell id="WepjOPcnquh5TteQ4RRN-50" value="quản lý mã qr" style="ellipse;whiteSpace=wrap;html=1;" vertex="1" parent="tp8tk3ZOuLwhO5mAe-Hx-1">
          <mxGeometry x="1230" y="660" width="100" height="60" as="geometry" />
        </mxCell>
        <mxCell id="WepjOPcnquh5TteQ4RRN-87" value="đăng nhập" style="ellipse;whiteSpace=wrap;html=1;" vertex="1" parent="tp8tk3ZOuLwhO5mAe-Hx-1">
          <mxGeometry x="690" y="750" width="100" height="60" as="geometry" />
        </mxCell>
        <mxCell id="WepjOPcnquh5TteQ4RRN-94" value="&amp;lt;&amp;lt;include&amp;gt;&amp;gt;" style="html=1;verticalAlign=bottom;labelBackgroundColor=none;endArrow=open;endFill=0;dashed=1;rounded=0;exitX=0;exitY=0.5;exitDx=0;exitDy=0;entryX=1;entryY=0.5;entryDx=0;entryDy=0;" edge="1" parent="tp8tk3ZOuLwhO5mAe-Hx-1" source="WepjOPcnquh5TteQ4RRN-43" target="WepjOPcnquh5TteQ4RRN-87">
          <mxGeometry width="160" relative="1" as="geometry">
            <mxPoint x="1150" y="460" as="sourcePoint" />
            <mxPoint x="1310" y="320" as="targetPoint" />
          </mxGeometry>
        </mxCell>
        <mxCell id="WepjOPcnquh5TteQ4RRN-96" value="&amp;lt;&amp;lt;include&amp;gt;&amp;gt;" style="html=1;verticalAlign=bottom;labelBackgroundColor=none;endArrow=open;endFill=0;dashed=1;rounded=0;exitX=0;exitY=0.5;exitDx=0;exitDy=0;entryX=1;entryY=0.5;entryDx=0;entryDy=0;" edge="1" parent="tp8tk3ZOuLwhO5mAe-Hx-1" source="WepjOPcnquh5TteQ4RRN-44" target="WepjOPcnquh5TteQ4RRN-87">
          <mxGeometry width="160" relative="1" as="geometry">
            <mxPoint x="370" y="500" as="sourcePoint" />
            <mxPoint x="828" y="892" as="targetPoint" />
          </mxGeometry>
        </mxCell>
        <mxCell id="WepjOPcnquh5TteQ4RRN-97" value="thêm combo" style="ellipse;whiteSpace=wrap;html=1;" vertex="1" parent="tp8tk3ZOuLwhO5mAe-Hx-1">
          <mxGeometry x="970" y="30" width="80" height="40" as="geometry" />
        </mxCell>
        <mxCell id="WepjOPcnquh5TteQ4RRN-98" value="cập nhật combo" style="ellipse;whiteSpace=wrap;html=1;" vertex="1" parent="tp8tk3ZOuLwhO5mAe-Hx-1">
          <mxGeometry x="1090" y="10" width="80" height="40" as="geometry" />
        </mxCell>
        <mxCell id="WepjOPcnquh5TteQ4RRN-99" value="xoá combo" style="ellipse;whiteSpace=wrap;html=1;" vertex="1" parent="tp8tk3ZOuLwhO5mAe-Hx-1">
          <mxGeometry x="1200" y="10" width="80" height="40" as="geometry" />
        </mxCell>
        <mxCell id="WepjOPcnquh5TteQ4RRN-100" value="hiển thị danh sách combo" style="ellipse;whiteSpace=wrap;html=1;" vertex="1" parent="tp8tk3ZOuLwhO5mAe-Hx-1">
          <mxGeometry x="950" y="110" width="80" height="40" as="geometry" />
        </mxCell>
        <mxCell id="WepjOPcnquh5TteQ4RRN-101" value="&amp;lt;&amp;lt;extend&amp;gt;&amp;gt;" style="html=1;verticalAlign=bottom;labelBackgroundColor=none;endArrow=open;endFill=0;dashed=1;rounded=0;exitX=1;exitY=0.5;exitDx=0;exitDy=0;entryX=0;entryY=0.5;entryDx=0;entryDy=0;" edge="1" parent="tp8tk3ZOuLwhO5mAe-Hx-1" source="WepjOPcnquh5TteQ4RRN-100" target="WepjOPcnquh5TteQ4RRN-43">
          <mxGeometry width="160" relative="1" as="geometry">
            <mxPoint x="1060" y="100" as="sourcePoint" />
            <mxPoint x="976" y="190" as="targetPoint" />
          </mxGeometry>
        </mxCell>
        <mxCell id="WepjOPcnquh5TteQ4RRN-103" value="&amp;lt;&amp;lt;extend&amp;gt;&amp;gt;" style="html=1;verticalAlign=bottom;labelBackgroundColor=none;endArrow=open;endFill=0;dashed=1;rounded=0;exitX=0.5;exitY=1;exitDx=0;exitDy=0;entryX=0;entryY=0;entryDx=0;entryDy=0;" edge="1" parent="tp8tk3ZOuLwhO5mAe-Hx-1" source="WepjOPcnquh5TteQ4RRN-98" target="WepjOPcnquh5TteQ4RRN-43">
          <mxGeometry width="160" relative="1" as="geometry">
            <mxPoint x="1120" y="80" as="sourcePoint" />
            <mxPoint x="1036" y="170" as="targetPoint" />
          </mxGeometry>
        </mxCell>
        <mxCell id="WepjOPcnquh5TteQ4RRN-104" value="&amp;lt;&amp;lt;extend&amp;gt;&amp;gt;" style="html=1;verticalAlign=bottom;labelBackgroundColor=none;endArrow=open;endFill=0;dashed=1;rounded=0;exitX=0.334;exitY=1.003;exitDx=0;exitDy=0;entryX=0.592;entryY=0.007;entryDx=0;entryDy=0;entryPerimeter=0;exitPerimeter=0;" edge="1" parent="tp8tk3ZOuLwhO5mAe-Hx-1" source="WepjOPcnquh5TteQ4RRN-99" target="WepjOPcnquh5TteQ4RRN-43">
          <mxGeometry width="160" relative="1" as="geometry">
            <mxPoint x="1210" y="100" as="sourcePoint" />
            <mxPoint x="1126" y="190" as="targetPoint" />
          </mxGeometry>
        </mxCell>
        <mxCell id="WepjOPcnquh5TteQ4RRN-102" value="&amp;lt;&amp;lt;extend&amp;gt;&amp;gt;" style="html=1;verticalAlign=bottom;labelBackgroundColor=none;endArrow=open;endFill=0;dashed=1;rounded=0;exitX=1;exitY=0.5;exitDx=0;exitDy=0;entryX=0.036;entryY=0.32;entryDx=0;entryDy=0;entryPerimeter=0;" edge="1" parent="tp8tk3ZOuLwhO5mAe-Hx-1" source="WepjOPcnquh5TteQ4RRN-97" target="WepjOPcnquh5TteQ4RRN-43">
          <mxGeometry width="160" relative="1" as="geometry">
            <mxPoint x="693" y="242" as="sourcePoint" />
            <mxPoint x="1090" y="140" as="targetPoint" />
          </mxGeometry>
        </mxCell>
        <mxCell id="WepjOPcnquh5TteQ4RRN-105" value="cập nhật món" style="ellipse;whiteSpace=wrap;html=1;" vertex="1" parent="tp8tk3ZOuLwhO5mAe-Hx-1">
          <mxGeometry x="1130" y="200" width="80" height="40" as="geometry" />
        </mxCell>
        <mxCell id="WepjOPcnquh5TteQ4RRN-106" value="thêm món" style="ellipse;whiteSpace=wrap;html=1;" vertex="1" parent="tp8tk3ZOuLwhO5mAe-Hx-1">
          <mxGeometry x="1220" y="160" width="80" height="40" as="geometry" />
        </mxCell>
        <mxCell id="WepjOPcnquh5TteQ4RRN-107" value="sửa món" style="ellipse;whiteSpace=wrap;html=1;" vertex="1" parent="tp8tk3ZOuLwhO5mAe-Hx-1">
          <mxGeometry x="1320" y="175" width="80" height="40" as="geometry" />
        </mxCell>
        <mxCell id="WepjOPcnquh5TteQ4RRN-108" value="hiển thị danh sách món" style="ellipse;whiteSpace=wrap;html=1;" vertex="1" parent="tp8tk3ZOuLwhO5mAe-Hx-1">
          <mxGeometry x="1100" y="260" width="80" height="40" as="geometry" />
        </mxCell>
        <mxCell id="WepjOPcnquh5TteQ4RRN-109" value="&amp;lt;&amp;lt;extend&amp;gt;&amp;gt;" style="html=1;verticalAlign=bottom;labelBackgroundColor=none;endArrow=open;endFill=0;dashed=1;rounded=0;exitX=0.98;exitY=0.731;exitDx=0;exitDy=0;entryX=0.039;entryY=0.327;entryDx=0;entryDy=0;entryPerimeter=0;exitPerimeter=0;" edge="1" parent="tp8tk3ZOuLwhO5mAe-Hx-1" source="WepjOPcnquh5TteQ4RRN-105" target="WepjOPcnquh5TteQ4RRN-44">
          <mxGeometry width="160" relative="1" as="geometry">
            <mxPoint x="1240" y="220" as="sourcePoint" />
            <mxPoint x="1156" y="310" as="targetPoint" />
          </mxGeometry>
        </mxCell>
        <mxCell id="WepjOPcnquh5TteQ4RRN-110" value="&amp;lt;&amp;lt;extend&amp;gt;&amp;gt;" style="html=1;verticalAlign=bottom;labelBackgroundColor=none;endArrow=open;endFill=0;dashed=1;rounded=0;exitX=0.5;exitY=1;exitDx=0;exitDy=0;" edge="1" parent="tp8tk3ZOuLwhO5mAe-Hx-1" source="WepjOPcnquh5TteQ4RRN-106" target="WepjOPcnquh5TteQ4RRN-44">
          <mxGeometry width="160" relative="1" as="geometry">
            <mxPoint x="1280" y="220" as="sourcePoint" />
            <mxPoint x="1196" y="310" as="targetPoint" />
          </mxGeometry>
        </mxCell>
        <mxCell id="WepjOPcnquh5TteQ4RRN-111" value="&amp;lt;&amp;lt;extend&amp;gt;&amp;gt;" style="html=1;verticalAlign=bottom;labelBackgroundColor=none;endArrow=open;endFill=0;dashed=1;rounded=0;exitX=0;exitY=1;exitDx=0;exitDy=0;entryX=0.721;entryY=0.08;entryDx=0;entryDy=0;entryPerimeter=0;" edge="1" parent="tp8tk3ZOuLwhO5mAe-Hx-1" source="WepjOPcnquh5TteQ4RRN-107" target="WepjOPcnquh5TteQ4RRN-44">
          <mxGeometry width="160" relative="1" as="geometry">
            <mxPoint x="1350" y="230" as="sourcePoint" />
            <mxPoint x="1266" y="320" as="targetPoint" />
          </mxGeometry>
        </mxCell>
        <mxCell id="WepjOPcnquh5TteQ4RRN-112" value="&amp;lt;&amp;lt;extend&amp;gt;&amp;gt;" style="html=1;verticalAlign=bottom;labelBackgroundColor=none;endArrow=open;endFill=0;dashed=1;rounded=0;exitX=1;exitY=0.5;exitDx=0;exitDy=0;entryX=0;entryY=0.5;entryDx=0;entryDy=0;" edge="1" parent="tp8tk3ZOuLwhO5mAe-Hx-1" source="WepjOPcnquh5TteQ4RRN-108" target="WepjOPcnquh5TteQ4RRN-44">
          <mxGeometry width="160" relative="1" as="geometry">
            <mxPoint x="1200" y="270" as="sourcePoint" />
            <mxPoint x="1116" y="360" as="targetPoint" />
          </mxGeometry>
        </mxCell>
        <mxCell id="WepjOPcnquh5TteQ4RRN-113" value="hiển thị danh sách nhân viên" style="ellipse;whiteSpace=wrap;html=1;" vertex="1" parent="tp8tk3ZOuLwhO5mAe-Hx-1">
          <mxGeometry x="1310" y="330" width="80" height="40" as="geometry" />
        </mxCell>
        <mxCell id="WepjOPcnquh5TteQ4RRN-114" value="thêm nhân viên" style="ellipse;whiteSpace=wrap;html=1;" vertex="1" parent="tp8tk3ZOuLwhO5mAe-Hx-1">
          <mxGeometry x="1220" y="340" width="80" height="40" as="geometry" />
        </mxCell>
        <mxCell id="WepjOPcnquh5TteQ4RRN-115" value="xoá nhân viên" style="ellipse;whiteSpace=wrap;html=1;" vertex="1" parent="tp8tk3ZOuLwhO5mAe-Hx-1">
          <mxGeometry x="1150" y="390" width="80" height="40" as="geometry" />
        </mxCell>
        <mxCell id="WepjOPcnquh5TteQ4RRN-116" value="&amp;lt;&amp;lt;extend&amp;gt;&amp;gt;" style="html=1;verticalAlign=bottom;labelBackgroundColor=none;endArrow=open;endFill=0;dashed=1;rounded=0;exitX=1;exitY=0.5;exitDx=0;exitDy=0;" edge="1" parent="tp8tk3ZOuLwhO5mAe-Hx-1" source="WepjOPcnquh5TteQ4RRN-115" target="WepjOPcnquh5TteQ4RRN-45">
          <mxGeometry width="160" relative="1" as="geometry">
            <mxPoint x="1300" y="390" as="sourcePoint" />
            <mxPoint x="1216" y="480" as="targetPoint" />
          </mxGeometry>
        </mxCell>
        <mxCell id="WepjOPcnquh5TteQ4RRN-117" value="&amp;lt;&amp;lt;extend&amp;gt;&amp;gt;" style="html=1;verticalAlign=bottom;labelBackgroundColor=none;endArrow=open;endFill=0;dashed=1;rounded=0;exitX=0.5;exitY=1;exitDx=0;exitDy=0;" edge="1" parent="tp8tk3ZOuLwhO5mAe-Hx-1" source="WepjOPcnquh5TteQ4RRN-114" target="WepjOPcnquh5TteQ4RRN-45">
          <mxGeometry width="160" relative="1" as="geometry">
            <mxPoint x="1300" y="380" as="sourcePoint" />
            <mxPoint x="1216" y="470" as="targetPoint" />
          </mxGeometry>
        </mxCell>
        <mxCell id="WepjOPcnquh5TteQ4RRN-118" value="&amp;lt;&amp;lt;extend&amp;gt;&amp;gt;" style="html=1;verticalAlign=bottom;labelBackgroundColor=none;endArrow=open;endFill=0;dashed=1;rounded=0;exitX=0.5;exitY=1;exitDx=0;exitDy=0;entryX=0.598;entryY=-0.018;entryDx=0;entryDy=0;entryPerimeter=0;" edge="1" parent="tp8tk3ZOuLwhO5mAe-Hx-1" source="WepjOPcnquh5TteQ4RRN-113" target="WepjOPcnquh5TteQ4RRN-45">
          <mxGeometry width="160" relative="1" as="geometry">
            <mxPoint x="1350" y="400" as="sourcePoint" />
            <mxPoint x="1266" y="490" as="targetPoint" />
          </mxGeometry>
        </mxCell>
        <mxCell id="WepjOPcnquh5TteQ4RRN-119" value="xoá bàn" style="ellipse;whiteSpace=wrap;html=1;" vertex="1" parent="tp8tk3ZOuLwhO5mAe-Hx-1">
          <mxGeometry x="1100" y="540" width="80" height="40" as="geometry" />
        </mxCell>
        <mxCell id="WepjOPcnquh5TteQ4RRN-120" value="thêm bàn" style="ellipse;whiteSpace=wrap;html=1;" vertex="1" parent="tp8tk3ZOuLwhO5mAe-Hx-1">
          <mxGeometry x="1170" y="495" width="80" height="40" as="geometry" />
        </mxCell>
        <mxCell id="WepjOPcnquh5TteQ4RRN-121" value="hiển thị danh sách bàn" style="ellipse;whiteSpace=wrap;html=1;" vertex="1" parent="tp8tk3ZOuLwhO5mAe-Hx-1">
          <mxGeometry x="1280" y="495" width="80" height="40" as="geometry" />
        </mxCell>
        <mxCell id="WepjOPcnquh5TteQ4RRN-122" value="&amp;lt;&amp;lt;extend&amp;gt;&amp;gt;" style="html=1;verticalAlign=bottom;labelBackgroundColor=none;endArrow=open;endFill=0;dashed=1;rounded=0;exitX=0.979;exitY=0.658;exitDx=0;exitDy=0;entryX=0;entryY=0.5;entryDx=0;entryDy=0;exitPerimeter=0;" edge="1" parent="tp8tk3ZOuLwhO5mAe-Hx-1" source="WepjOPcnquh5TteQ4RRN-119" target="WepjOPcnquh5TteQ4RRN-49">
          <mxGeometry width="160" relative="1" as="geometry">
            <mxPoint x="1200" y="560" as="sourcePoint" />
            <mxPoint x="1116" y="650" as="targetPoint" />
          </mxGeometry>
        </mxCell>
        <mxCell id="WepjOPcnquh5TteQ4RRN-123" value="&amp;lt;&amp;lt;extend&amp;gt;&amp;gt;" style="html=1;verticalAlign=bottom;labelBackgroundColor=none;endArrow=open;endFill=0;dashed=1;rounded=0;exitX=1;exitY=1;exitDx=0;exitDy=0;entryX=0;entryY=0;entryDx=0;entryDy=0;" edge="1" parent="tp8tk3ZOuLwhO5mAe-Hx-1" source="WepjOPcnquh5TteQ4RRN-120" target="WepjOPcnquh5TteQ4RRN-49">
          <mxGeometry width="160" relative="1" as="geometry">
            <mxPoint x="1260" y="540" as="sourcePoint" />
            <mxPoint x="1176" y="630" as="targetPoint" />
          </mxGeometry>
        </mxCell>
        <mxCell id="WepjOPcnquh5TteQ4RRN-124" value="&amp;lt;&amp;lt;extend&amp;gt;&amp;gt;" style="html=1;verticalAlign=bottom;labelBackgroundColor=none;endArrow=open;endFill=0;dashed=1;rounded=0;exitX=0;exitY=1;exitDx=0;exitDy=0;entryX=0.5;entryY=0;entryDx=0;entryDy=0;" edge="1" parent="tp8tk3ZOuLwhO5mAe-Hx-1" source="WepjOPcnquh5TteQ4RRN-121" target="WepjOPcnquh5TteQ4RRN-49">
          <mxGeometry width="160" relative="1" as="geometry">
            <mxPoint x="1310" y="550" as="sourcePoint" />
            <mxPoint x="1226" y="640" as="targetPoint" />
          </mxGeometry>
        </mxCell>
        <mxCell id="WepjOPcnquh5TteQ4RRN-9" style="edgeStyle=orthogonalEdgeStyle;rounded=0;orthogonalLoop=1;jettySize=auto;html=1;endArrow=none;endFill=0;" edge="1" parent="1" source="WepjOPcnquh5TteQ4RRN-1" target="WepjOPcnquh5TteQ4RRN-2">
          <mxGeometry relative="1" as="geometry" />
        </mxCell>
        <mxCell id="WepjOPcnquh5TteQ4RRN-1" value="khách hàng" style="shape=umlActor;verticalLabelPosition=bottom;verticalAlign=top;html=1;outlineConnect=0;" vertex="1" parent="1">
          <mxGeometry x="60" y="792.5" width="30" height="60" as="geometry" />
        </mxCell>
        <mxCell id="WepjOPcnquh5TteQ4RRN-35" value="&amp;lt;&amp;lt;include&amp;gt;&amp;gt;" style="html=1;verticalAlign=bottom;labelBackgroundColor=none;endArrow=open;endFill=0;dashed=1;rounded=0;exitX=1;exitY=0.5;exitDx=0;exitDy=0;" edge="1" parent="1" source="WepjOPcnquh5TteQ4RRN-18">
          <mxGeometry width="160" relative="1" as="geometry">
            <mxPoint x="570" y="540" as="sourcePoint" />
            <mxPoint x="690" y="700" as="targetPoint" />
          </mxGeometry>
        </mxCell>
        <mxCell id="WepjOPcnquh5TteQ4RRN-88" style="rounded=0;orthogonalLoop=1;jettySize=auto;html=1;entryX=1;entryY=0.5;entryDx=0;entryDy=0;endArrow=none;endFill=0;" edge="1" parent="1" source="WepjOPcnquh5TteQ4RRN-40" target="WepjOPcnquh5TteQ4RRN-43">
          <mxGeometry relative="1" as="geometry" />
        </mxCell>
        <mxCell id="WepjOPcnquh5TteQ4RRN-89" style="rounded=0;orthogonalLoop=1;jettySize=auto;html=1;entryX=1;entryY=0.5;entryDx=0;entryDy=0;endArrow=none;endFill=0;" edge="1" parent="1" source="WepjOPcnquh5TteQ4RRN-40" target="WepjOPcnquh5TteQ4RRN-44">
          <mxGeometry relative="1" as="geometry" />
        </mxCell>
        <mxCell id="WepjOPcnquh5TteQ4RRN-90" style="rounded=0;orthogonalLoop=1;jettySize=auto;html=1;entryX=1;entryY=0.5;entryDx=0;entryDy=0;endArrow=none;endFill=0;" edge="1" parent="1" source="WepjOPcnquh5TteQ4RRN-40" target="WepjOPcnquh5TteQ4RRN-45">
          <mxGeometry relative="1" as="geometry" />
        </mxCell>
        <mxCell id="WepjOPcnquh5TteQ4RRN-91" style="rounded=0;orthogonalLoop=1;jettySize=auto;html=1;entryX=1;entryY=0.5;entryDx=0;entryDy=0;endArrow=none;endFill=0;" edge="1" parent="1" source="WepjOPcnquh5TteQ4RRN-40" target="WepjOPcnquh5TteQ4RRN-49">
          <mxGeometry relative="1" as="geometry" />
        </mxCell>
        <mxCell id="WepjOPcnquh5TteQ4RRN-92" style="rounded=0;orthogonalLoop=1;jettySize=auto;html=1;entryX=1;entryY=0.5;entryDx=0;entryDy=0;endArrow=none;endFill=0;" edge="1" parent="1" source="WepjOPcnquh5TteQ4RRN-40" target="WepjOPcnquh5TteQ4RRN-50">
          <mxGeometry relative="1" as="geometry" />
        </mxCell>
        <mxCell id="WepjOPcnquh5TteQ4RRN-93" style="rounded=0;orthogonalLoop=1;jettySize=auto;html=1;entryX=1;entryY=0.5;entryDx=0;entryDy=0;endArrow=none;endFill=0;" edge="1" parent="1" source="WepjOPcnquh5TteQ4RRN-40" target="WepjOPcnquh5TteQ4RRN-46">
          <mxGeometry relative="1" as="geometry" />
        </mxCell>
        <mxCell id="WepjOPcnquh5TteQ4RRN-40" value="quản lý" style="shape=umlActor;verticalLabelPosition=bottom;verticalAlign=top;html=1;outlineConnect=0;" vertex="1" parent="1">
          <mxGeometry x="1850" y="540" width="30" height="60" as="geometry" />
        </mxCell>
        <mxCell id="WepjOPcnquh5TteQ4RRN-41" value="nhân viên phục vụ" style="shape=umlActor;verticalLabelPosition=bottom;verticalAlign=top;html=1;outlineConnect=0;" vertex="1" parent="1">
          <mxGeometry x="1850" y="1140" width="30" height="60" as="geometry" />
        </mxCell>
        <mxCell id="WepjOPcnquh5TteQ4RRN-42" value="bếp" style="shape=umlActor;verticalLabelPosition=bottom;verticalAlign=top;html=1;outlineConnect=0;" vertex="1" parent="1">
          <mxGeometry x="1850" y="1800" width="30" height="60" as="geometry" />
        </mxCell>
      </root>
    </mxGraphModel>
  </diagram>
</mxfile>
